<?xml version="1.0" standalone="no"?><!DOCTYPE svg PUBLIC "-//W3C//DTD SVG 1.1//EN" "http://www.w3.org/Graphics/SVG/1.1/DTD/svg11.dtd"><svg t="1672931310029" class="icon" viewBox="0 0 1024 1024" version="1.1" xmlns="http://www.w3.org/2000/svg" p-id="5325" xmlns:xlink="http://www.w3.org/1999/xlink" width="200" height="200"><path d="M736 128H288c-52.9 0-96 43.1-96 96v576c0 52.9 43.1 96 96 96h448c52.9 0 96-43.1 96-96V224c0-52.9-43.1-96-96-96z m32 672c0 17.6-14.4 32-32 32H288c-17.6 0-32-14.4-32-32V224c0-17.6 14.4-32 32-32h448c17.6 0 32 14.4 32 32v576z" p-id="5326"></path><path d="M672 320H352c-17.7 0-32 14.3-32 32s14.3 32 32 32h320c17.7 0 32-14.3 32-32s-14.3-32-32-32zM672 480H352c-17.7 0-32 14.3-32 32s14.3 32 32 32h320c17.7 0 32-14.3 32-32s-14.3-32-32-32zM672 640H352c-17.7 0-32 14.3-32 32s14.3 32 32 32h320c17.7 0 32-14.3 32-32s-14.3-32-32-32z" p-id="5327"></path></svg>